<?xml version="1.0" standalone="no"?>
<!DOCTYPE svg PUBLIC "-//W3C//DTD SVG 20010904//EN"
 "http://www.w3.org/TR/2001/REC-SVG-20010904/DTD/svg10.dtd">
<svg version="1.0" xmlns="http://www.w3.org/2000/svg"
 width="801.398907pt" height="942.930796pt" viewBox="0 0 801.398907 942.930796"
 preserveAspectRatio="xMidYMid meet">
<metadata>
Created by potrace 1.12, written by Peter Selinger 2001-2015
</metadata>
<g transform="translate(-0.182066,942.930796) scale(0.100000,-0.100000)"
fill="#000000" stroke="none">
<path d="M3903 9415 c-152 -47 -257 -173 -270 -323 -13 -160 62 -296 203 -366
l51 -25 6 -668 c4 -367 7 -1282 7 -2033 1 -1264 11 -3304 25 -4835 l6 -640
-35 116 c-113 373 -259 652 -534 1018 -51 68 -105 140 -120 160 l-27 36 3
2145 3 2145 46 30 c26 17 60 47 77 68 30 38 31 42 31 142 0 100 -1 104 -31
142 -48 59 -102 92 -171 104 -90 16 -159 -6 -223 -71 -122 -121 -96 -315 53
-391 l37 -19 0 -2023 0 -2022 -41 70 c-23 39 -70 129 -105 200 -100 208 -150
350 -211 603 l-35 147 -9 505 c-5 278 -13 552 -19 608 -33 342 -193 767 -416
1110 l-54 83 0 903 c0 496 3 964 6 1038 l7 135 44 22 c68 33 137 103 169 174
25 54 29 73 28 147 -1 117 -28 186 -103 261 -76 75 -145 103 -261 103 -75 1
-93 -3 -151 -31 -85 -40 -138 -88 -178 -162 -59 -111 -52 -264 18 -367 37 -55
126 -130 166 -140 18 -4 24 -15 29 -51 3 -25 6 -435 6 -911 l0 -865 -62 64
c-380 392 -964 704 -1600 854 -170 40 -188 39 -188 -11 0 -19 30 -43 163 -130
311 -204 505 -361 713 -576 420 -433 693 -943 814 -1525 33 -157 35 -182 60
-848 6 -150 17 -308 25 -355 74 -412 274 -847 547 -1193 78 -99 395 -423 548
-561 l75 -68 -236 119 c-393 199 -610 340 -815 528 -277 253 -484 610 -580
1000 -29 121 -40 211 -54 460 -26 466 -89 726 -246 1023 -200 380 -507 659
-909 827 -115 49 -161 57 -176 34 -14 -23 -11 -31 47 -125 125 -198 207 -379
269 -594 70 -243 97 -429 115 -795 19 -388 45 -591 105 -810 87 -317 258 -668
447 -919 381 -506 893 -839 1758 -1146 563 -199 746 -294 943 -488 101 -99
134 -142 217 -279 46 -73 60 -106 60 -135 0 -37 1 -38 39 -38 40 0 51 13 51
67 0 24 69 145 135 238 61 86 226 241 325 307 155 102 283 158 750 328 359
130 516 196 725 304 523 269 895 599 1161 1028 71 114 200 380 248 509 108
293 154 554 176 999 14 284 27 418 55 575 55 296 150 550 301 801 63 105 84
148 79 163 -12 38 -49 32 -200 -33 -416 -178 -746 -499 -934 -909 -116 -250
-169 -474 -191 -797 -25 -382 -31 -444 -50 -537 -57 -278 -174 -540 -356 -794
-138 -194 -409 -429 -681 -592 -126 -75 -594 -320 -600 -314 -1 2 22 24 52 50
210 182 475 457 604 627 279 369 475 838 521 1249 5 47 14 255 20 461 11 408
18 487 56 660 127 576 398 1076 817 1507 203 209 385 356 692 558 143 95 175
120 175 139 0 50 -18 51 -188 11 -428 -101 -818 -268 -1152 -490 -177 -118
-260 -185 -402 -324 l-118 -114 0 780 c0 429 3 841 6 915 l7 135 44 22 c68 33
137 103 169 174 25 54 29 73 28 147 -1 117 -28 186 -103 261 -76 75 -145 103
-261 103 -75 1 -93 -3 -151 -31 -85 -40 -138 -88 -178 -162 -59 -111 -52 -264
18 -367 37 -55 126 -130 166 -140 18 -4 24 -15 29 -51 3 -25 6 -497 6 -1048
l0 -1002 -49 -74 c-209 -316 -377 -767 -410 -1101 -5 -51 -12 -304 -16 -563
-7 -514 -11 -559 -71 -793 -43 -167 -99 -322 -175 -480 -57 -120 -156 -302
-165 -302 -2 0 -4 910 -3 2023 l0 2022 46 30 c26 17 60 47 77 68 30 38 31 42
31 142 0 100 -1 104 -31 142 -48 59 -102 92 -171 104 -90 16 -159 -6 -223 -71
-124 -123 -95 -317 58 -394 l32 -17 0 -2159 0 -2160 -109 -142 c-272 -357
-443 -674 -539 -998 -69 -231 -63 -290 -57 570 3 426 10 2177 15 3890 5 1713
13 3214 16 3336 l7 221 48 23 c58 27 152 123 179 182 26 56 28 212 4 282 -22
63 -110 158 -177 190 -49 24 -153 47 -207 45 -14 0 -44 -6 -67 -14z"/>
</g>
</svg>
